<?xml version="1.0" encoding="UTF-8" standalone="no"?>
<svg
   xml:space="preserve"
   version="1.1"
   viewBox="0 0 55.562527 19.579181"
   height="74.0000"
   width="210.0000"
   xmlns="http://www.w3.org/2000/svg"
   xmlns:svg="http://www.w3.org/2000/svg">
	<defs>
		<clipPath clipPathUnits="userSpaceOnUse" id="p1">
			<rect style="fill:#ffffff;fill-opacity:1;stroke:none;stroke-width:1.5875;stroke-linejoin:round;stroke-miterlimit:0;stroke-dasharray:none;stroke-opacity:1"
      		width="4.7624998"
      		height="4.7624998"
         	x="29.633331"
         	y="0"
         	ry="0" />
		</clipPath>
		<clipPath clipPathUnits="userSpaceOnUse" id="p2">
			<rect style="fill:#ffffff;fill-opacity:1;stroke:none;stroke-width:1.5875;stroke-linejoin:round;stroke-miterlimit:0;stroke-dasharray:none;stroke-opacity:1"
         	width="4.7624998"
         	height="4.7624998"
         	x="29.633331"
         	y="0"
         	ry="0" />
		</clipPath>
	</defs>
	<g>
		<text xml:space="preserve"
       	style="font-style:normal;font-variant:normal;font-weight:bold;font-stretch:normal;font-size:12.3879px;font-family:Quicksand;-inkscape-font-specification:'Quicksand Bold';fill:#ffffff;fill-opacity:1;stroke:#ffffff;stroke-width:1.5875;stroke-miterlimit:0;stroke-dasharray:none;stroke-opacity:1;image-rendering:optimizeQuality"
       	x="0.30504981"
       	y="11.418716"
       	transform="scale(0.99148611,1.008587)">
			<tspan style="font-size:12.3879px;fill:#ffffff;fill-opacity:1;stroke:#ffffff;stroke-width:1.5875;stroke-opacity:1"
         	x="0.30504981"
         	y="11.418716">S</tspan>
		</text>
		<path style="fill:#ffffff;stroke-width:3.17501;stroke-linejoin:round;stroke-miterlimit:0;paint-order:stroke fill markers;image-rendering:optimizeQuality"
       	d="m 8.4666726,3.968751 c 0.8794772,0 1.5875034,0.7080252 1.5875034,1.5875003 v 3.175001 c 0.0041,0.2918262 0.239407,0.5312339 0.529167,0.5291668 0.289759,-0.00207 0.529166,-0.2373406 0.529166,-0.5291668 V 5.5562514 c 0,-0.7483549 0.705821,-1.5875004 1.587501,-1.5875004 0.881681,0 1.587501,0.7089209 1.587501,1.5875004 v 3.1750009 c -0.0041,2.0448517 -1.658283,3.7010687 -3.704169,3.7041687 -2.0458874,0.0031 -3.7041728,-1.658284 -3.7041728,-3.7041687 v -3.175001 c 0,-0.8825757 0.7080268,-1.5875003 1.5875034,-1.5875003 z" />
		<circle style="fill:none;fill-opacity:1;stroke:#ffffff;stroke-width:3.175;stroke-linejoin:round;stroke-miterlimit:0;stroke-dasharray:none;stroke-opacity:1;image-rendering:optimizeQuality"
       	cx="17.4625"
       	cy="8.2020826"
       	r="2.6458333" />
		<rect style="fill:#ffffff;fill-opacity:1;stroke:none;stroke-width:3.175;stroke-linejoin:round;stroke-miterlimit:0;stroke-dasharray:none;stroke-opacity:1;image-rendering:optimizeQuality"
       	width="3.175"
       	height="10.847917"
       	x="18.520832"
       	y="1.5875"
       	ry="1.5875" />
		<path style="fill:#ffffff;fill-opacity:1;stroke:none;stroke-width:3.175;stroke-linejoin:round;stroke-miterlimit:0;stroke-opacity:1;image-rendering:optimizeQuality"
       	d="m 40.808883,4.2994344 2.68e-4,2.68e-4 c 0.621161,0.6218828 0.621161,1.6231814 0,2.2450642 L 37.306269,10.052052 V 5.561013 l 1.260154,-1.2615786 c 0.621171,-0.6218728 1.621299,-0.6218828 2.24246,0 z m 0.264584,7.6695696 2.67e-4,-2.68e-4 c 0.621162,-0.621883 0.621162,-1.623182 0,-2.2450646 L 39.368433,7.987243 37.306269,10.052052 v 0.390789 l 1.524738,1.526163 c 0.621232,0.621812 1.621299,0.621883 2.24246,0 z M 35.718768,1.5875004 c 0.879476,0 1.587501,0.7080248 1.587501,1.5875004 v 7.6729182 c 0,0.879476 -0.708025,1.587501 -1.587501,1.587501 -0.879475,0 -1.587501,-0.708025 -1.587501,-1.587501 V 3.1750008 c 0,-0.8794756 0.708026,-1.5875004 1.587501,-1.5875004 z" />
		<path style="fill:#ffffff;stroke-width:3.17501;stroke-linejoin:round;stroke-miterlimit:0;paint-order:stroke fill markers;image-rendering:optimizeQuality"
       	d="m 41.804178,3.968751 c 0.879475,0 1.587501,0.7080251 1.587501,1.5875003 v 3.1750009 c 0.0041,0.2918258 0.239407,0.5312338 0.529166,0.5291668 0.289759,-0.0021 0.529166,-0.237341 0.529166,-0.5291668 V 5.5562514 c 0,-0.7483549 0.705821,-1.5875004 1.587501,-1.5875004 0.88168,0 1.5875,0.7089209 1.5875,1.5875004 v 3.1750008 c -0.0041,2.0448508 -1.658283,3.7010668 -3.704167,3.7041668 -2.045885,0.0031 -3.704167,-1.658283 -3.704167,-3.7041668 V 5.5562513 c 0,-0.8825757 0.708025,-1.5875003 1.5875,-1.5875003 z" />
		<text xml:space="preserve"
       	style="font-weight:bold;font-size:14.4108px;font-family:Quicksand;-inkscape-font-specification:'Quicksand Bold';fill:#ffffff;fill-opacity:1;stroke:#ffffff;stroke-width:1.5875;stroke-linejoin:round;stroke-miterlimit:0;stroke-dasharray:none;stroke-opacity:1;image-rendering:optimizeQuality"
       	x="46.304337"
       	y="12.511274"
       	id="text9489"
       	transform="scale(1.0178325,0.98247993)">
			<tspan style="stroke-width:1.5875"
         	x="46.304337"
         	y="12.511274">'</tspan>
		</text>
		<text xml:space="preserve"
       	style="font-weight:bold;font-size:12.4657px;font-family:Quicksand;-inkscape-font-specification:'Quicksand Bold';fill:#ffffff;fill-opacity:1;stroke:#ffffff;stroke-width:1.5875;stroke-linejoin:round;stroke-miterlimit:0;stroke-dasharray:none;stroke-opacity:1;image-rendering:optimizeQuality"
       	x="48.885681"
       	y="11.583499"
       	id="text9537"
       	transform="scale(1.0057097,0.99432271)">
			<tspan style="stroke-width:1.5875"
         	x="48.885681"
         	y="11.583499">s</tspan>
		</text>
		<text xml:space="preserve"
       	style="font-style:normal;font-variant:normal;font-weight:bold;font-stretch:normal;font-size:12.3879px;font-family:Quicksand;-inkscape-font-specification:'Quicksand Bold';fill:#000000;fill-opacity:1;stroke:none;stroke-width:1.5875;stroke-miterlimit:0;stroke-dasharray:none;stroke-opacity:1;image-rendering:optimizeQuality"
       	x="0.30504981"
       	y="11.418716"
       	id="text24415"
       	transform="scale(0.99148611,1.008587)">
			<tspan style="font-size:12.3879px;fill:#000000;fill-opacity:1;stroke-width:1.5875"
         	x="0.30504981"
         	y="11.418716">S</tspan>
		</text>
		<path style="fill:#000000;fill-opacity:1;stroke:none;stroke-width:0.79375;stroke-linejoin:round;stroke-miterlimit:0;stroke-dasharray:none;image-rendering:optimizeQuality"
       	d="m 7.6729204,5.5562518 c 0,-0.4382568 0.3503274,-0.7937508 0.7937522,-0.7937508 0.4434244,0 0.7937512,0.358595 0.7937512,0.7937508 v 3.1750008 c 0.0031,0.7321488 0.6992888,1.3229164 1.3229192,1.3229164 0.73525,0 1.322917,-0.5897336 1.322917,-1.3229164 V 5.5562518 c 0,-0.4382568 0.357562,-0.7937508 0.793751,-0.7937508 0.436189,0 0.79375,0.354461 0.79375,0.7937508 v 3.1750008 c 0,1.6096964 -1.303823,2.9104174 -2.910418,2.9104174 -1.6065976,0 -2.9114556,-1.302788 -2.9104226,-2.9104174 z" />
		<path style="fill:#000000;fill-opacity:1;stroke-width:1.5875;stroke-miterlimit:0;image-rendering:optimizeQuality"
       	d="m 20.108341,2.38125 c 0.439737,0 0.79375,0.3581478 0.79375,0.7937506 v 7.6729164 c 0,0.439738 -0.354013,0.793751 -0.79375,0.793751 -0.439738,0 -0.793751,-0.354013 -0.793751,-0.793751 V 8.2020848 c 0,-1.0208746 -0.827074,-1.8520824 -1.852084,-1.8520824 -1.02501,0 -1.852085,0.8270728 -1.852085,1.8520824 0,1.0250096 0.827075,1.8562192 1.852085,1.8520852 0.438256,0 0.79375,0.35446 0.79375,0.79375 0,0.43929 -0.35136,0.793751 -0.79375,0.793751 -1.899456,0 -3.439586,-1.539097 -3.439586,-3.4395862 0,-1.9004874 1.539097,-3.4395828 3.439586,-3.4395828 1.900489,0 3.439585,1.5401294 3.439585,3.4395828 L 19.31459,5.5562508 V 3.1750006 c 0,-0.4397368 0.354013,-0.7937506 0.793751,-0.7937506 z" />
		<path style="stroke-width:0.79375;stroke-linejoin:round;stroke-miterlimit:0;paint-order:stroke fill markers;image-rendering:optimizeQuality"
       	d="m 40.239827,4.8602402 c 0.309883,0.310941 0.309883,0.8115898 0,1.1225326 L 36.510778,9.7244984 V 7.4795082 l 2.610335,-2.619268 c 0.309883,-0.3109418 0.80883,-0.3109418 1.118714,0 z m -2.010612,3.1383798 2.283962,2.287192 c 0.310421,0.310943 0.310144,0.811243 -2.76e-4,1.122184 -0.310421,0.310943 -0.810232,0.310943 -1.120653,0 L 37.109471,9.1225706 Z M 35.718382,2.3812492 c 0.439524,0 0.793365,0.3540138 0.793365,0.7937516 v 7.6729172 c 0,0.439739 -0.353841,0.793752 -0.793365,0.793752 -0.439524,0 -0.793364,-0.354013 -0.793364,-0.793752 V 3.1750008 c 0,-0.4397378 0.35384,-0.7937516 0.793364,-0.7937516 z" />
		<path style="fill:#000000;fill-opacity:1;stroke:none;stroke-width:0.79375;stroke-linejoin:round;stroke-miterlimit:0;stroke-dasharray:none;image-rendering:optimizeQuality"
       	d="m 41.010427,5.5562518 c 0,-0.4382568 0.350326,-0.7937508 0.79375,-0.7937508 0.443424,0 0.79375,0.358595 0.79375,0.7937508 v 3.1750004 c 0.0031,0.7321486 0.699288,1.3229168 1.322917,1.3229168 0.73525,0 1.322917,-0.5897342 1.322917,-1.3229168 V 5.5562518 c 0,-0.4382568 0.357561,-0.7937508 0.79375,-0.7937508 0.43619,0 0.793751,0.354461 0.793751,0.7937508 v 3.1750004 c 0,1.6096948 -1.303823,2.9104168 -2.910418,2.9104168 -1.606595,0 -2.911451,-1.302789 -2.910417,-2.9104168 z" />
		<text xml:space="preserve"
       	style="font-style:normal;font-variant:normal;font-weight:bold;font-stretch:normal;font-size:12.6094px;font-family:Quicksand;-inkscape-font-specification:'Quicksand Bold';fill:#000000;fill-opacity:1;stroke:none;stroke-width:1.5875;stroke-miterlimit:0;stroke-dasharray:none;stroke-opacity:1;image-rendering:optimizeQuality"
       	x="46.365021"
       	y="11.519602"
       	id="text24423"
       	transform="scale(1.0178349,0.9824776)">
			<tspan style="fill:#000000;fill-opacity:1;stroke-width:1.5875"
         	x="46.365021"
         	y="11.519602">'</tspan>
		</text>
		<text xml:space="preserve"
       	style="font-style:normal;font-variant:normal;font-weight:bold;font-stretch:normal;font-size:12.4656px;font-family:Quicksand;-inkscape-font-specification:'Quicksand Bold';fill:#000000;fill-opacity:1;stroke:none;stroke-width:1.5875;stroke-miterlimit:0;stroke-dasharray:none;stroke-opacity:1;image-rendering:optimizeQuality"
       	x="48.885761"
       	y="11.583436"
       	transform="scale(1.005708,0.9943244)">
			<tspan style="fill:#000000;fill-opacity:1;stroke-width:1.5875"
         	x="48.885761"
         	y="11.583436">s</tspan>
		</text>
		<text xml:space="preserve"
       	style="font-weight:bold;font-size:8.05785px;font-family:Quicksand;-inkscape-font-specification:'Quicksand Bold';opacity:1;fill:#000000;fill-opacity:1;stroke:none;stroke-width:0.79375;stroke-linecap:butt;stroke-linejoin:round;stroke-miterlimit:0;stroke-dasharray:none;stroke-opacity:1;image-rendering:optimizeQuality"
       	x="18.086884"
       	y="19.053864"
       	transform="scale(0.97317038,1.0275693)">
			<tspan style="font-size:8.05785px;fill:#000000;fill-opacity:1;stroke-width:0.79375"
         	x="18.086884"
         	y="19.053864">W</tspan>
		</text>
		<ellipse style="fill:none;fill-opacity:1;stroke:#000000;stroke-width:1.05833;stroke-linejoin:round;stroke-miterlimit:0;stroke-dasharray:none;stroke-opacity:1;paint-order:stroke fill markers;image-rendering:optimizeQuality"
       	cx="26.987511"
       	cy="17.462503"
       	rx="1.5875022"
       	ry="1.5875021" />
		<path style="stroke-width:1.05833;stroke-linejoin:round;stroke-miterlimit:0;paint-order:stroke fill markers;image-rendering:optimizeQuality"
       	d="m 29.897927,15.345845 c 0.293159,0 0.529167,0.236008 0.529167,0.529167 l -1.058334,1.5875 c 0,-1.168339 0.948329,-2.119768 2.116668,-2.116667 0.289759,0 0.529166,0.238374 0.529166,0.529167 0,0.290792 -0.240441,0.529166 -0.529166,0.529166 -0.58572,-0.0041 -1.058334,0.473648 -1.058334,1.058334 v 1.5875 c 0,0.293159 -0.236008,0.529167 -0.529167,0.529167 -0.293158,0 -0.529167,-0.236008 -0.529167,-0.529167 v -3.175 c 0,-0.293159 0.236009,-0.529167 0.529167,-0.529167 z" />
		<rect style="fill:#000000;fill-opacity:1;stroke:none;stroke-width:0.793748;stroke-linecap:butt;stroke-linejoin:round;stroke-miterlimit:0;stroke-dasharray:none;stroke-opacity:1;image-rendering:optimizeQuality"
       	width="1.0583336"
       	height="5.8208346"
       	x="32.279179"
       	y="13.758338"
       	ry="0.52916682" />
		<path id="rect49278-5-2-9"
       	style="stroke-width:0.793748;stroke-linejoin:round;stroke-miterlimit:0;image-rendering:optimizeQuality"
       	d="m 37.306262,13.758336 c 0.293158,0 0.529167,0.236009 0.529167,0.529167 v 4.762501 c 0,0.293158 -0.236009,0.529167 -0.529167,0.529167 -0.293158,0 -0.529167,-0.236009 -0.529167,-0.529167 v -1.5875 c 0,-0.583653 -0.473647,-1.058334 -1.058333,-1.058334 -0.584686,0 -1.058334,0.472614 -1.058334,1.058334 0,0.585719 0.472614,1.058333 1.058334,1.058333 0.288725,0 0.529166,0.239408 0.529166,0.529167 0,0.289759 -0.239407,0.529167 -0.529166,0.529167 -1.168339,0 -2.116668,-0.946261 -2.116668,-2.116667 0,-1.170406 0.948329,-2.116667 2.116668,-2.116667 1.168338,0 2.116667,0.945227 2.116667,2.116667 l -1.058334,-1.83224 v -1.342761 c 0,-0.293158 0.236009,-0.529167 0.529167,-0.529167 z" />
		<path style="fill:#ffffff;fill-opacity:1;stroke-width:0.79375;stroke-linejoin:round;stroke-miterlimit:0;image-rendering:optimizeQuality"
       	d="M 31.286978,13.49375 H 27.913541 V 10.120313 6.7468744 h 3.373436 3.373437 v 3.3734386 c 0,1.868883 -1.504552,3.373437 -3.373436,3.373437 z M 24.540102,2.2055557e-6 h 3.373439 V 3.3734376 6.7468745 H 24.540103 21.166666 V 3.3734376 c 0,-1.8688834 1.504552,-3.3734353944443 3.373436,-3.3734353944443 z M 21.166667,6.746874 A 6.7468746,6.7468746 0 0 1 27.913542,2.2055557e-6 6.7468746,6.7468746 0 0 1 34.660416,6.746874 6.7468746,6.7468746 0 0 1 27.913542,13.49375 6.7468746,6.7468746 0 0 1 21.166667,6.746874 Z m 13.493749,1.2e-6 A 6.7468746,6.7468746 0 0 1 27.913542,13.49375 6.7468746,6.7468746 0 0 1 21.166667,6.7468752 6.7468746,6.7468746 0 0 1 27.913542,2.2055557e-6 6.7468746,6.7468746 0 0 1 34.660416,6.7468752 Z" />
		<path style="stroke-width:0.79375;stroke-linejoin:round;stroke-miterlimit:0;image-rendering:optimizeQuality"
       	d="M 30.890103,12.700001 H 27.91354 V 9.7234387 6.7468754 h 2.976562 2.976563 v 2.9765633 c 0,1.6490153 -1.327546,2.9765623 -2.976562,2.9765623 z M 24.936977,0.79375045 H 27.91354 V 3.7703126 6.7468755 H 24.936978 21.960415 V 3.7703126 c 0,-1.6490155 1.327546,-2.97656215 2.976562,-2.97656215 z M 21.960416,6.746875 A 5.953125,5.953125 0 0 1 27.913541,0.79374998 5.953125,5.953125 0 0 1 33.866666,6.746875 5.953125,5.953125 0 0 1 27.913541,12.700001 5.953125,5.953125 0 0 1 21.960416,6.746875 Z m 11.90625,1e-6 A 5.953125,5.953125 0 0 1 27.913541,12.700001 5.953125,5.953125 0 0 1 21.960416,6.746876 5.953125,5.953125 0 0 1 27.913541,0.79375045 5.953125,5.953125 0 0 1 33.866666,6.746876 Z" />
		<circle style="fill:#808080;fill-opacity:1;stroke:none;stroke-width:1.58751;stroke-linejoin:round;stroke-miterlimit:0;stroke-dasharray:none;stroke-opacity:1;image-rendering:optimizeQuality"
       	cx="29.633333"
       	cy="4.7624998"
       	r="4.7624998"
       	clip-path="url(#p1)"
       	transform="translate(-1.3229153,1.5875004)" />
		<path style="fill:#ffffff;stroke-width:1.5875;stroke-linejoin:round;stroke-miterlimit:0;image-rendering:optimizeQuality"
       	d="m 33.072915,7.1437504 v 2.3812505 c 0,1.3151281 -1.066122,2.3812501 -2.38125,2.3812501 h -2.38125 V 7.1437504 Z" />
		<circle style="fill:#808080;fill-opacity:1;stroke:none;stroke-width:1.58751;stroke-linejoin:round;stroke-miterlimit:0;stroke-dasharray:none;stroke-opacity:1;image-rendering:optimizeQuality"
       	cx="29.633333"
       	cy="4.7624998"
       	r="4.7624998"
       	clip-path="url(#p2)"
       	transform="rotate(180,28.574999,5.953125)" />
		<path style="fill:#ffffff;stroke-width:1.5875;stroke-linejoin:round;stroke-miterlimit:0;image-rendering:optimizeQuality"
       	d="m 22.754165,6.3500004 v -2.38125 c 0,-1.315128 1.066122,-2.38125 2.38125,-2.38125 h 2.38125 v 4.7625 z" />
	</g>
</svg>