<?xml version="1.0" encoding="UTF-8" standalone="no"?>

<svg
   width="250"
   height="250"
   viewBox="0 0 66.145837 66.145837"
   version="1.1"
   xmlns="http://www.w3.org/2000/svg"
   xmlns:svg="http://www.w3.org/2000/svg">
  <g>
    <rect
       style="fill:none;stroke:#000000;stroke-width:1.5875;stroke-linecap:butt;stroke-linejoin:round;stroke-miterlimit:0;stroke-dasharray:none;stroke-opacity:1"
       width="64.558334"
       height="64.558334"
       x="0.79374999"
       y="0.79374999"
       ry="6.5875854" />
    <path
       style="stroke-width:1.32293;stroke-linejoin:round;stroke-miterlimit:0"
       d="m 42.068752,6.6145835 c 0.439737,0 0.79375,0.3540125 0.79375,0.79375 V 58.737501 c 0,0.439738 -0.354013,0.79375 -0.79375,0.79375 -0.439738,0 -0.79375,-0.354012 -0.79375,-0.79375 V 7.4083335 c 0,-0.4397375 0.354012,-0.79375 0.79375,-0.79375 z M 6.6145835,42.068749 c 0,-0.439737 0.3540125,-0.79375 0.79375,-0.79375 H 58.737501 c 0.439738,0 0.79375,0.354013 0.79375,0.79375 0,0.439738 -0.354012,0.79375 -0.79375,0.79375 H 7.4083335 c -0.4397375,0 -0.79375,-0.354012 -0.79375,-0.79375 z m 0,-17.991667 c 0,-0.439737 0.3540125,-0.79375 0.79375,-0.79375 H 58.737501 c 0.439738,0 0.79375,0.354013 0.79375,0.79375 0,0.439738 -0.354012,0.79375 -0.79375,0.79375 H 7.4083335 c -0.4397375,0 -0.79375,-0.354012 -0.79375,-0.79375 z M 24.077083,6.6145835 c 0.439737,0 0.79375,0.3540125 0.79375,0.79375 V 58.737501 c 0,0.439738 -0.354013,0.79375 -0.79375,0.79375 -0.439738,0 -0.79375,-0.354012 -0.79375,-0.79375 V 7.4083335 c 0,-0.4397375 0.354012,-0.79375 0.79375,-0.79375 z" />
    <path
       style="stroke-width:1.5875;stroke-linejoin:round;stroke-miterlimit:0"
       transform="rotate(90)"
       d="m 12.567709,-21.960417 c 0.219868,0 0.396875,0.177006 0.396875,0.396875 v 13.229167 c 0,0.2198688 -0.177007,0.396875 -0.396875,0.396875 -0.219869,0 -0.396875,-0.1770062 -0.396875,-0.396875 v -13.229167 c 0,-0.219869 0.177006,-0.396875 0.396875,-0.396875 z m 4.762498,0 c 0.219869,0 0.396875,0.177006 0.396875,0.396875 v 13.229167 c 0,0.2198688 -0.177006,0.396875 -0.396875,0.396875 -0.219868,0 -0.396875,-0.1770062 -0.396875,-0.396875 v -13.229167 c 0,-0.219869 0.177007,-0.396875 0.396875,-0.396875 z m 4.63021,9.392709 c 0,0.219868 -0.177006,0.396875 -0.396875,0.396875 H 8.334375 c -0.2198688,0 -0.396875,-0.177007 -0.396875,-0.396875 0,-0.219869 0.1770062,-0.396875 0.396875,-0.396875 h 13.229167 c 0.219869,0 0.396875,0.177006 0.396875,0.396875 z m 0,-4.7625 c 0,0.219869 -0.177006,0.396875 -0.396875,0.396875 H 8.334375 c -0.2198688,0 -0.396875,-0.177006 -0.396875,-0.396875 0,-0.219869 0.1770062,-0.396875 0.396875,-0.396875 h 13.229167 c 0.219869,0 0.396875,0.177006 0.396875,0.396875 z" />
    <path
       style="stroke-width:1.5875;stroke-linejoin:round;stroke-miterlimit:0"
       d="m 21.960417,30.691667 c 0,0.219868 -0.177006,0.396875 -0.396875,0.396875 H 8.334375 c -0.2198688,0 -0.396875,-0.177007 -0.396875,-0.396875 0,-0.219869 0.1770062,-0.396875 0.396875,-0.396875 h 13.229167 c 0.219869,0 0.396875,0.177006 0.396875,0.396875 z m 0,4.762498 c 0,0.219869 -0.177006,0.396875 -0.396875,0.396875 H 8.334375 c -0.2198688,0 -0.396875,-0.177006 -0.396875,-0.396875 0,-0.219868 0.1770062,-0.396875 0.396875,-0.396875 h 13.229167 c 0.219869,0 0.396875,0.177007 0.396875,0.396875 z m -9.392709,4.63021 c -0.219868,0 -0.396875,-0.177006 -0.396875,-0.396875 V 26.458333 c 0,-0.219869 0.177007,-0.396875 0.396875,-0.396875 0.219869,0 0.396875,0.177006 0.396875,0.396875 V 39.6875 c 0,0.219869 -0.177006,0.396875 -0.396875,0.396875 z m 4.7625,0 c -0.219869,0 -0.396875,-0.177006 -0.396875,-0.396875 V 26.458333 c 0,-0.219869 0.177006,-0.396875 0.396875,-0.396875 0.219869,0 0.396875,0.177006 0.396875,0.396875 V 39.6875 c 0,0.219869 -0.177006,0.396875 -0.396875,0.396875 z" />
    <path
       style="stroke-width:1.5875;stroke-linejoin:round;stroke-miterlimit:0"
       d="m 21.960417,48.815625 c 0,0.219868 -0.177006,0.396875 -0.396875,0.396875 H 8.334375 c -0.2198688,0 -0.396875,-0.177007 -0.396875,-0.396875 0,-0.219869 0.1770062,-0.396875 0.396875,-0.396875 h 13.229167 c 0.219869,0 0.396875,0.177006 0.396875,0.396875 z m 0,4.762498 c 0,0.219869 -0.177006,0.396875 -0.396875,0.396875 H 8.334375 c -0.2198688,0 -0.396875,-0.177006 -0.396875,-0.396875 0,-0.219868 0.1770062,-0.396875 0.396875,-0.396875 h 13.229167 c 0.219869,0 0.396875,0.177007 0.396875,0.396875 z m -9.392709,4.63021 c -0.219868,0 -0.396875,-0.177006 -0.396875,-0.396875 V 44.582291 c 0,-0.219869 0.177007,-0.396875 0.396875,-0.396875 0.219869,0 0.396875,0.177006 0.396875,0.396875 v 13.229167 c 0,0.219869 -0.177006,0.396875 -0.396875,0.396875 z m 4.7625,0 c -0.219869,0 -0.396875,-0.177006 -0.396875,-0.396875 V 44.582291 c 0,-0.219869 0.177006,-0.396875 0.396875,-0.396875 0.219869,0 0.396875,0.177006 0.396875,0.396875 v 13.229167 c 0,0.219869 -0.177006,0.396875 -0.396875,0.396875 z" />
    <path
       style="stroke-width:1.5875;stroke-linejoin:round;stroke-miterlimit:0"
       d="m 40.084375,48.815625 c 0,0.219868 -0.177006,0.396875 -0.396875,0.396875 H 26.458333 c -0.219869,0 -0.396875,-0.177007 -0.396875,-0.396875 0,-0.219869 0.177006,-0.396875 0.396875,-0.396875 H 39.6875 c 0.219869,0 0.396875,0.177006 0.396875,0.396875 z m 0,4.762498 c 0,0.219869 -0.177006,0.396875 -0.396875,0.396875 H 26.458333 c -0.219869,0 -0.396875,-0.177006 -0.396875,-0.396875 0,-0.219868 0.177006,-0.396875 0.396875,-0.396875 H 39.6875 c 0.219869,0 0.396875,0.177007 0.396875,0.396875 z m -9.392709,4.63021 c -0.219868,0 -0.396875,-0.177006 -0.396875,-0.396875 V 44.582291 c 0,-0.219869 0.177007,-0.396875 0.396875,-0.396875 0.219869,0 0.396875,0.177006 0.396875,0.396875 v 13.229167 c 0,0.219869 -0.177006,0.396875 -0.396875,0.396875 z m 4.7625,0 c -0.219869,0 -0.396875,-0.177006 -0.396875,-0.396875 V 44.582291 c 0,-0.219869 0.177006,-0.396875 0.396875,-0.396875 0.219869,0 0.396875,0.177006 0.396875,0.396875 v 13.229167 c 0,0.219869 -0.177006,0.396875 -0.396875,0.396875 z" />
    <path
       style="stroke-width:1.5875;stroke-linejoin:round;stroke-miterlimit:0"
       d="m 58.208333,48.815625 c 0,0.219868 -0.177006,0.396875 -0.396875,0.396875 H 44.582291 c -0.219869,0 -0.396875,-0.177007 -0.396875,-0.396875 0,-0.219869 0.177006,-0.396875 0.396875,-0.396875 h 13.229167 c 0.219869,0 0.396875,0.177006 0.396875,0.396875 z m 0,4.762498 c 0,0.219869 -0.177006,0.396875 -0.396875,0.396875 H 44.582291 c -0.219869,0 -0.396875,-0.177006 -0.396875,-0.396875 0,-0.219868 0.177006,-0.396875 0.396875,-0.396875 h 13.229167 c 0.219869,0 0.396875,0.177007 0.396875,0.396875 z m -9.392709,4.63021 c -0.219868,0 -0.396875,-0.177006 -0.396875,-0.396875 V 44.582291 c 0,-0.219869 0.177007,-0.396875 0.396875,-0.396875 0.219869,0 0.396875,0.177006 0.396875,0.396875 v 13.229167 c 0,0.219869 -0.177006,0.396875 -0.396875,0.396875 z m 4.7625,0 c -0.219869,0 -0.396875,-0.177006 -0.396875,-0.396875 V 44.582291 c 0,-0.219869 0.177006,-0.396875 0.396875,-0.396875 0.219869,0 0.396875,0.177006 0.396875,0.396875 v 13.229167 c 0,0.219869 -0.177006,0.396875 -0.396875,0.396875 z" />
    <path
       style="stroke-width:1.5875;stroke-linejoin:round;stroke-miterlimit:0"
       d="m 40.084375,30.691667 c 0,0.219868 -0.177006,0.396875 -0.396875,0.396875 H 26.458333 c -0.219869,0 -0.396875,-0.177007 -0.396875,-0.396875 0,-0.219869 0.177006,-0.396875 0.396875,-0.396875 H 39.6875 c 0.219869,0 0.396875,0.177006 0.396875,0.396875 z m 0,4.762498 c 0,0.219869 -0.177006,0.396875 -0.396875,0.396875 H 26.458333 c -0.219869,0 -0.396875,-0.177006 -0.396875,-0.396875 0,-0.219868 0.177006,-0.396875 0.396875,-0.396875 H 39.6875 c 0.219869,0 0.396875,0.177007 0.396875,0.396875 z m -9.392709,4.63021 c -0.219868,0 -0.396875,-0.177006 -0.396875,-0.396875 V 26.458333 c 0,-0.219869 0.177007,-0.396875 0.396875,-0.396875 0.219869,0 0.396875,0.177006 0.396875,0.396875 V 39.6875 c 0,0.219869 -0.177006,0.396875 -0.396875,0.396875 z m 4.7625,0 c -0.219869,0 -0.396875,-0.177006 -0.396875,-0.396875 V 26.458333 c 0,-0.219869 0.177006,-0.396875 0.396875,-0.396875 0.219869,0 0.396875,0.177006 0.396875,0.396875 V 39.6875 c 0,0.219869 -0.177006,0.396875 -0.396875,0.396875 z" />
    <path
       style="stroke-width:1.5875;stroke-linejoin:round;stroke-miterlimit:0"
       d="m 58.208333,30.691667 c 0,0.219868 -0.177006,0.396875 -0.396875,0.396875 H 44.582291 c -0.219869,0 -0.396875,-0.177007 -0.396875,-0.396875 0,-0.219869 0.177006,-0.396875 0.396875,-0.396875 h 13.229167 c 0.219869,0 0.396875,0.177006 0.396875,0.396875 z m 0,4.762498 c 0,0.219869 -0.177006,0.396875 -0.396875,0.396875 H 44.582291 c -0.219869,0 -0.396875,-0.177006 -0.396875,-0.396875 0,-0.219868 0.177006,-0.396875 0.396875,-0.396875 h 13.229167 c 0.219869,0 0.396875,0.177007 0.396875,0.396875 z m -9.392709,4.63021 c -0.219868,0 -0.396875,-0.177006 -0.396875,-0.396875 V 26.458333 c 0,-0.219869 0.177007,-0.396875 0.396875,-0.396875 0.219869,0 0.396875,0.177006 0.396875,0.396875 V 39.6875 c 0,0.219869 -0.177006,0.396875 -0.396875,0.396875 z m 4.7625,0 c -0.219869,0 -0.396875,-0.177006 -0.396875,-0.396875 V 26.458333 c 0,-0.219869 0.177006,-0.396875 0.396875,-0.396875 0.219869,0 0.396875,0.177006 0.396875,0.396875 V 39.6875 c 0,0.219869 -0.177006,0.396875 -0.396875,0.396875 z" />
    <path
       style="stroke-width:1.5875;stroke-linejoin:round;stroke-miterlimit:0"
       d="m 40.084375,12.567709 c 0,0.219868 -0.177006,0.396875 -0.396875,0.396875 H 26.458333 c -0.219869,0 -0.396875,-0.177007 -0.396875,-0.396875 0,-0.219869 0.177006,-0.396875 0.396875,-0.396875 H 39.6875 c 0.219869,0 0.396875,0.177006 0.396875,0.396875 z m 0,4.762498 c 0,0.219869 -0.177006,0.396875 -0.396875,0.396875 H 26.458333 c -0.219869,0 -0.396875,-0.177006 -0.396875,-0.396875 0,-0.219868 0.177006,-0.396875 0.396875,-0.396875 H 39.6875 c 0.219869,0 0.396875,0.177007 0.396875,0.396875 z m -9.392709,4.63021 c -0.219868,0 -0.396875,-0.177006 -0.396875,-0.396875 V 8.334375 c 0,-0.2198688 0.177007,-0.396875 0.396875,-0.396875 0.219869,0 0.396875,0.1770062 0.396875,0.396875 v 13.229167 c 0,0.219869 -0.177006,0.396875 -0.396875,0.396875 z m 4.7625,0 c -0.219869,0 -0.396875,-0.177006 -0.396875,-0.396875 V 8.334375 c 0,-0.2198688 0.177006,-0.396875 0.396875,-0.396875 0.219869,0 0.396875,0.1770062 0.396875,0.396875 v 13.229167 c 0,0.219869 -0.177006,0.396875 -0.396875,0.396875 z" />
    <path
       style="stroke-width:1.5875;stroke-linejoin:round;stroke-miterlimit:0"
       d="m 58.208333,12.567709 c 0,0.219868 -0.177006,0.396875 -0.396875,0.396875 H 44.582291 c -0.219869,0 -0.396875,-0.177007 -0.396875,-0.396875 0,-0.219869 0.177006,-0.396875 0.396875,-0.396875 h 13.229167 c 0.219869,0 0.396875,0.177006 0.396875,0.396875 z m 0,4.762498 c 0,0.219869 -0.177006,0.396875 -0.396875,0.396875 H 44.582291 c -0.219869,0 -0.396875,-0.177006 -0.396875,-0.396875 0,-0.219868 0.177006,-0.396875 0.396875,-0.396875 h 13.229167 c 0.219869,0 0.396875,0.177007 0.396875,0.396875 z m -9.392709,4.63021 c -0.219868,0 -0.396875,-0.177006 -0.396875,-0.396875 V 8.334375 c 0,-0.2198688 0.177007,-0.396875 0.396875,-0.396875 0.219869,0 0.396875,0.1770062 0.396875,0.396875 v 13.229167 c 0,0.219869 -0.177006,0.396875 -0.396875,0.396875 z m 4.7625,0 c -0.219869,0 -0.396875,-0.177006 -0.396875,-0.396875 V 8.334375 c 0,-0.2198688 0.177006,-0.396875 0.396875,-0.396875 0.219869,0 0.396875,0.1770062 0.396875,0.396875 v 13.229167 c 0,0.219869 -0.177006,0.396875 -0.396875,0.396875 z" />
  </g>
</svg>
